<?xml version="1.0" encoding="UTF-8" standalone="no"?>
<svg width="77px" height="77px" viewBox="0 0 77 77" version="1.1" xmlns="http://www.w3.org/2000/svg" xmlns:xlink="http://www.w3.org/1999/xlink" xmlns:sketch="http://www.bohemiancoding.com/sketch/ns">
    <!-- Generator: Sketch 3.4.3 (16618) - http://www.bohemiancoding.com/sketch -->
    <title>facebook</title>
    <desc>Created with Sketch.</desc>
    <defs></defs>
    <g id="Welcome" stroke="none" stroke-width="1" fill="none" fill-rule="evenodd" sketch:type="MSPage">
        <g id="Desktop-HD-Copy-3" sketch:type="MSArtboardGroup" transform="translate(-947.000000, -914.000000)" fill="#3D5E96">
            <g id="Group" sketch:type="MSLayerGroup" transform="translate(0.000000, 860.000000)">
                <path d="M947.5,54.4686719 L1024,54.4686718 L1024,130.968672 L1000.09375,130.968672 L1000.09375,100.687422 L1010.2041,100.687422 L1011.69824,89.5311719 L1000.09375,89.5311719 L1000.09375,82.4091016 C1000.09375,80.6161238 1000.55859,79.2382079 1001.48828,78.2753125 C1002.41797,77.3124171 1004.01171,76.8309766 1006.26953,76.8309766 L1012.84375,76.7811719 L1012.84375,66.4716016 C1009.65623,66.1727719 1006.66798,66.0233594 1003.87891,66.0233594 C999.363259,66.0233594 995.744154,67.3597718 993.021484,70.0326367 C990.298815,72.7055016 988.9375,76.4491166 988.9375,81.2635938 L988.9375,89.5311719 L977.78125,89.5311719 L977.78125,100.687422 L988.9375,100.687422 L988.9375,130.968672 L947.5,130.968672 L947.5,54.4686719 Z" id="facebook" sketch:type="MSShapeGroup"></path>
            </g>
        </g>
    </g>
</svg>