<?xml version="1.0" encoding="utf-8"?>
<!-- Generator: Adobe Illustrator 19.1.0, SVG Export Plug-In . SVG Version: 6.00 Build 0)  -->
<svg version="1.1" id="Layer_1" xmlns="http://www.w3.org/2000/svg" xmlns:xlink="http://www.w3.org/1999/xlink" x="0px" y="0px"
	 viewBox="0 0 400 205.5" enable-background="new 0 0 400 205.5" xml:space="preserve">
<g>
	<path fill="#010101" d="M106.2,68.6c-1.2,3.1-1,3.9,1.7,7c2.1,2.4,8,8.9,17.4,18.6l-1,1.9c-7.5-1.1-15.3-2.2-22.7-3.2l0,0.1
		c5.2,5.8,10.2,11.4,15.2,16.9l-1,1.9c-8.5-1.7-16.7-3.3-25.2-4.9c-3.8-0.8-4.7-0.3-6.4,2l-1.3-0.7l6.5-11.8l1.3,0.7
		c-1.4,3.4-0.9,3.7,1.5,4.2c5.8,1.3,11.7,2.5,17.5,3.6l0-0.1c-5-5.5-10.1-11.2-15.4-16.7l1-1.8c7.6,1.1,15.3,2.1,22.9,3.2l0-0.1
		c-4.2-4.5-10-10.3-12.2-12.3c-2.1-1.9-2.8-2.1-5,1.1l-1.3-0.7l5.3-9.7L106.2,68.6z"/>
	<path fill="#010101" d="M142.6,64.9c1.1,1.6,3.3,5.3,3.9,6.7l-17.7,16.6l-1-1.1c2.9-3.1,3-3.7,0.3-6.5l-12.3-13.2
		c-2.8-3-3.2-2.8-6.1-0.6l-1-1.1l16.4-15.3c0.7,0.6,3,2.8,5,4.7l-1,1.3c-1.5-1-2.9-1.6-4-1.7c-1.2-0.1-2.4,0.5-4.6,2.6l-2.1,2
		c-1.2,1.2-1.3,1.3-0.3,2.4l6.9,7.4l2.7-2.6c3.1-2.9,3.3-3.4,1.5-6.2l1.2-1.1l6.2,6.7l-1.2,1.1c-2.7-2-3.2-1.8-6.3,1.1l-2.8,2.6
		l5.6,6c1.5,1.6,2.4,2.3,3.4,2c1-0.3,2.3-1.4,3.7-2.8c2.2-2,3.1-3.3,3.1-5c0-1.3-0.4-3-1.1-5L142.6,64.9z"/>
	<path fill="#010101" d="M155.6,41c-2.1-2.2-5.1-4.4-8.7-2.6c-2.8,1.4-3.5,4.2-2.3,6.5c1.3,2.6,3.7,3,8.3,2.9
		c5.1-0.1,9.7,0.3,11.8,4.6c2.3,4.6,0.1,10.2-6.1,13.3c-1.6,0.8-3.2,1.3-4.6,1.6c-1.3,0.3-2.3,0.4-2.9,0.4c-0.9-0.8-3.2-4-4.7-6.2
		l1.3-1.1c2.1,2.2,6.7,5.5,10.9,3.3c2.9-1.5,3.8-4.2,2.4-6.9c-1.3-2.6-4.2-3.1-8.3-3.1c-4.8,0.1-9.4-0.3-11.6-4.5
		c-2.2-4.3-0.4-9.6,5.6-12.6c2.5-1.3,5.1-1.7,6.3-1.9c0.9,1.4,2.1,3,3.8,5.4L155.6,41z"/>
	<path fill="#010101" d="M189.2,32.1c-1.1-2.2-1.9-3.4-2.9-4.1c-1-0.7-2.1-0.8-5.2-0.1l-2.6,0.6l4.7,21.7c0.8,3.7,1.3,4,5.7,3.4
		l0.3,1.4l-14.8,3.2l-0.3-1.4c4.1-1.2,4.4-1.6,3.6-5.4l-4.7-21.7l-2.1,0.4c-3.9,0.8-4.7,1.5-5.2,2.5c-0.5,0.9-0.8,2.5-0.9,4.7
		l-1.6,0.3c-0.5-3.1-0.9-6.3-1.3-8.7l1.1-0.2c0.9,0.9,1.6,0.8,2.9,0.6l19-4.1c1.2-0.3,1.7-0.7,2.4-1.7l1.1-0.2
		c0.4,1.9,1.5,5.6,2.3,8.3L189.2,32.1z"/>
	<path fill="#010101" d="M220.5,48c-0.5,1.7-1.8,6.2-2.3,7.5L195.3,54l0.1-1.5c4.2,0,4.6-0.3,4.9-4.2l1.2-18c0.3-4-0.1-4.3-3.9-4.8
		l0.1-1.5l14,0.9l-0.1,1.5c-3.7,0-4.2,0.3-4.5,4.2l-1.2,18.1c-0.1,2.3,0,3.2,0.9,3.7c0.8,0.4,2.2,0.6,3.9,0.7c2.3,0.1,4,0,5.2-1.2
		c1-0.9,1.9-2.3,2.9-4.5L220.5,48z"/>
	<path fill="#010101" d="M239.8,63l0.6-1.4c2.8,0.8,3.3,0.5,3.4-1.7c0.1-1.6,0.2-3.9,0.3-6.3l-8.9-3.8c-1.2,1.3-2.6,2.7-3.8,4.2
		c-1.7,2-1.7,2.6,1.4,4.3l-0.6,1.4l-9.9-4.2l0.6-1.4c3,0.9,3.8,0.7,6.9-2.3l18.5-18.1l2.2,0.3c-0.3,8.6-0.8,17.4-0.9,26
		c-0.1,4.4,0.3,5.1,3,6.6l-0.6,1.4L239.8,63z M244.8,40L244.8,40c-2.8,2.7-5.4,5.5-8,8.1l7.5,3.2L244.8,40z"/>
	<path fill="#010101" d="M270.1,85.1c0.3-4.1,0.8-10.6,1.4-16.7c0.1-1.7-0.2-2.3-0.8-2.8l-5.8,6.2c-2.8,2.9-2.7,3.5-0.1,6.3l-1,1.1
		l-10-9.5l1-1.1c2.8,2.3,3.3,2.3,6.1-0.6l12.3-12.9c2.8-2.9,2.7-3.5,0.1-6.2l1-1.1l9.9,9.4l-1,1.1c-2.8-2.3-3.3-2.3-6.1,0.6
		l-5.5,5.8c0.9,0.5,2.2,0.8,4.2,0.8c4.2,0,7.8-0.2,10.6-0.6c2-0.2,2.3-0.7,0.9-2.5l-0.6-0.7l1-1.1l8.9,8.4l-1,1.1
		c-2.6-2-4.2-2.8-7.9-2.9c-3.3-0.1-6.9,0-10.5,0.1c-0.7,5.5-1,12-1.3,16.8c-0.1,3.3,0.3,4.6,1.7,6.2l-1,1.1L270.1,85.1z"/>
	<path fill="#010101" d="M295.9,112.8c-1.8,0.6-6,1.7-7.5,2l-11.2-21.5l1.3-0.7c2.2,3.6,2.7,3.8,6.1,2.1l16-8.3
		c3.6-1.9,3.6-2.4,2.2-5.7l1.3-0.7l10.3,19.9c-0.8,0.5-3.5,2.2-5.8,3.6l-1-1.4c1.4-1.2,2.3-2.3,2.7-3.4c0.5-1.1,0.1-2.4-1.2-5.1
		l-1.3-2.5c-0.8-1.5-0.9-1.6-2.2-0.9l-9,4.7l1.7,3.3c2,3.8,2.4,4.1,5.6,3.2l0.7,1.4l-8.1,4.2l-0.7-1.4c2.6-2.1,2.6-2.6,0.7-6.3
		l-1.7-3.4l-7.3,3.8c-2,1-2.8,1.7-2.8,2.8c0,1,0.8,2.6,1.7,4.4c1.4,2.6,2.4,3.9,3.9,4.3c1.3,0.4,3,0.4,5.1,0.3L295.9,112.8z"/>
</g>
<g>
	<path fill="#672B85" d="M206.8,112.4c-2.8,0-5.1,2.3-5.1,5.1c0,0.5,0.1,0.9,0.2,1.4c-0.8-0.5-1.7-0.8-2.7-0.8
		c-2.8,0-5.1,2.3-5.1,5.1c0,2.8,2.3,5.1,5.1,5.1c2.8,0,5.1-2.3,5.1-5.1c0-0.5-0.1-0.9-0.2-1.4c0.8,0.5,1.7,0.8,2.7,0.8
		c2.8,0,5.1-2.3,5.1-5.1C212,114.8,209.7,112.4,206.8,112.4z"/>
	<circle fill="#672B85" cx="198" cy="110.7" r="5.1"/>
	<path fill="#672B85" d="M194.5,103.7c0-2.8-2.3-5.1-5.1-5.1c-0.8,0-1.5,0.2-2.2,0.5c0.5-0.8,0.8-1.7,0.8-2.7c0-0.1,0-0.1,0-0.2
		c0.9,1.1,2.3,1.8,3.9,1.8c2.8,0,5.1-2.3,5.1-5.1c0-0.7-0.1-1.3-0.4-1.9c0.5,0.2,1.1,0.3,1.7,0.3c2.8,0,5.1-2.3,5.1-5.1
		c0-2.8-2.3-5.1-5.1-5.1c-2.8,0-5.1,2.3-5.1,5.1c0,0.7,0.1,1.3,0.4,1.9c-0.5-0.2-1.1-0.3-1.7-0.3c-2.8,0-5.1,2.3-5.1,5.1
		c0,0.1,0,0.2,0,0.2c-0.9-1.1-2.3-1.8-3.9-1.8c-2.8,0-5.1,2.3-5.1,5.1c0,2.8,2.3,5.1,5.1,5.1c0.8,0,1.5-0.2,2.2-0.5
		c-0.5,0.8-0.8,1.7-0.8,2.7c0,2.8,2.3,5.1,5.1,5.1C192.2,108.9,194.5,106.6,194.5,103.7z"/>
	<circle fill="#672B85" cx="210.1" cy="106.2" r="5.1"/>
	<circle fill="#672B85" cx="219" cy="98.3" r="5.1"/>
	<circle fill="#672B85" cx="219.5" cy="86.4" r="5.1"/>
	<path fill="#672B85" d="M207,87.9c-2.1,0.6-3.7,2.6-3.7,4.9c0,0.9,0.3,1.8,0.7,2.6c-0.9-0.7-2-1.2-3.2-1.2c-2.8,0-5.1,2.3-5.1,5.1
		c0,2.8,2.3,5.1,5.1,5.1c2.8,0,5.1-2.3,5.1-5.1c0-0.9-0.3-1.8-0.7-2.6c0.9,0.7,2,1.2,3.2,1.2c2.8,0,5.1-2.3,5.1-5.1
		c0-2.1-1.3-3.9-3.1-4.7c2.1-0.6,3.7-2.6,3.7-4.9c0-2.8-2.3-5.1-5.1-5.1c-2.8,0-5.1,2.3-5.1,5.1C204,85.3,205.2,87.1,207,87.9z"/>
	<path fill="#672B85" d="M188.1,87.8c2.8,0,5.1-2.3,5.1-5.1c0-2.8-2.3-5.1-5.1-5.1c-2.8,0-5.1,2.3-5.1,5.1
		C182.9,85.5,185.2,87.8,188.1,87.8z"/>
</g>
<path fill="#6DBE46" d="M203.3,82.8c0,0,2.2-9.9-0.2-19.1c-0.8,0.8-1.2,6.7-1.1,9.8c0.1,3.1-5-8.9-12.7-1.6c0.3,0.3,2.7-1.6,5.4-0.7
	c-2.3,0.4-4.6,3.8-2.4,6.7c2.2,3,6.8,1.6,7.5-0.9c-1.5,1.5-6.3,2-6.4-1.4c-0.1-2.9,4.5-4.9,7-0.6c1.8,3.1,2,6.4,1.9,7.8
	c0.3,0.4,0.6,0.7,0.7,1.2C203.1,83.7,203.2,83.3,203.3,82.8z"/>
<g>
	<path fill="#672B85" d="M201.2,15.4c67.5,0,123.3,51.1,130.8,116.6c1.5-1.2,3.4-2,5.6-2c0.7,0,1.4,0.1,2.1,0.3
		C331.4,61.3,272.4,7.6,201.2,7.6c-70.9,0-129.6,53.2-138.3,121.7h7.9C79.5,65.1,134.6,15.4,201.2,15.4z"/>
	<path fill="#672B85" d="M326.2,188.1H76.1c-3.4-10.4-5.5-21.2-6.3-32.2l-2.6,7.3l-3.3,9c1.3,7.1,3.2,14.2,5.6,21l0.9,2.6h261.3
		l0.9-2.6c2.2-6.3,3.9-12.7,5.2-19.2h-8C329,178.8,327.8,183.5,326.2,188.1z"/>
</g>
<g>
	<path fill="#010101" d="M73.8,133.2l-10.1,28.7l-3.6,9.9c-6-3.5-6.4-3.3-8.6-9l-7.2-19.3l-10.1,28.3c-5.9-3.7-6.5-3.3-8.6-9.1
		L17.8,142c-1.2-3.1-2.1-6.7-5.4-8.6v-0.2h9.5c-0.3,1.2,0.4,3,0.8,4l9.7,26.2l7.6-21.4c1.2-3.4,2.5-7.1-1-8.6v-0.2h9.2
		c-0.4,1.4,0.1,3.2,1,5.7l9,24.4l7.3-20.5c1.2-3.3,3.3-7.8-1.8-9.3v-0.2H73.8z"/>
	<path fill="#010101" d="M85.9,170.2H75.1V170c2.9-1.4,2.5-3.5,2.5-6.1v-13.4c0-2.6,0.4-4.6-2.5-6v-0.2h4c1.5,0,3.1-0.1,4.2-0.9h0.2
		V164c0,2.6-0.4,4.7,2.5,6.1V170.2z M84.2,137.4c0,1.9-1.7,3.5-3.9,3.5c-2.4,0-4.2-1.6-4.2-3.7c0-2,2.1-3.3,4.2-3.3
		C82.5,133.9,84.2,135.6,84.2,137.4z"/>
	<path fill="#010101" d="M120.6,170.2h-10.9V170c2.9-1.4,2.5-3.5,2.5-6v-7.6c0-6-2-9.1-7.9-9.1c-5.9,0-6.9,3.4-6.9,6.7v9.9
		c0,2.6-0.4,4.6,2.5,6v0.2H89V170c2.9-1.4,2.5-3.5,2.5-6.1v-13.4c0-2.6,0.4-4.7-2.5-6.1v-0.2h3.8c1.4,0,3-0.1,4.4-0.7h0.2v4.3
		c2.3-2.7,4.9-4.3,9.2-4.3c3.6,0,7.8,1.2,9.9,3.9c1.8,2.2,1.6,5.7,1.6,8.4v8.1c0,2.6-0.4,4.6,2.5,6V170.2z"/>
	<path fill="#010101" d="M153.3,164.2l-3.3,5.3c-2.8,1-5.9,1.4-9,1.4c-11.1,0-18.7-6-18.7-13.8c0-7.8,6.6-13.5,16.3-13.5
		c8.8,0,15,5.5,14.7,12.7h-23.9c0.1,6.8,5.7,10.8,13,10.8c3.9,0,7.7-1,10.7-3H153.3z M146.4,153.1c-0.7-3.9-3.7-5.8-8.4-5.8
		c-4.4,0-7.6,2.2-8.4,5.8H146.4z"/>
	<path fill="#010101" d="M259,159.5c0,6-7.3,11.6-17.4,11.6c-4,0-7.9-0.5-11.6-1.7l-1.9-7c3.8,2.9,9.2,4.7,14.2,4.7
		c3.7,0,9.3-1.9,9.3-5.8c0-8.8-22.4-7.2-22.4-19.1c0-7.1,8.4-9.8,16.3-9.8c3.2,0,6.6,0.4,9.7,1.2v6.3c-2.5-2.2-6.6-3.5-10.2-3.5
		c-3.7,0-8.4,1.2-8.4,5.1C236.6,149.2,259,149.1,259,159.5z"/>
	<path fill="#010101" d="M294.9,157c0,7.8-6.6,13.9-15.7,13.9c-1.7,0-3.3-0.2-4.8-0.7l-3.5-4.6c2.3,1,4.6,1.6,7.1,1.6
		c6.9,0,10.3-4,10.3-9.6c0-5.2-3.3-10-9.9-10c-2.7,0-5.4,1-7.2,2.7c-1.9,1.7-1.8,3.8-1.8,6v19.3c0,2.6-0.4,4.6,2.5,6v0.2h-10.9v-0.2
		c2.9-1.4,2.5-3.4,2.5-6v-25c0-2.6,0.4-4.7-2.5-6v-0.2h4.3c1.4,0,3-0.1,3.9-0.7h0.2v4c2.2-2.6,7-4,10.7-4
		C289,143.6,294.9,149.7,294.9,157z"/>
	<path fill="#010101" d="M308.4,170.2h-10.9V170c2.9-1.4,2.5-3.5,2.5-6.1v-13.4c0-2.6,0.4-4.6-2.5-6v-0.2h4c1.5,0,3.1-0.1,4.2-0.9
		h0.2V164c0,2.6-0.4,4.7,2.5,6.1V170.2z M306.7,137.4c0,1.9-1.7,3.5-3.9,3.5c-2.4,0-4.2-1.6-4.2-3.7c0-2,2.1-3.3,4.2-3.3
		C305,133.9,306.7,135.6,306.7,137.4z"/>
	<path fill="#010101" d="M329.9,149c-0.7-0.7-1.9-0.9-3-0.9c-4.9,0-7,2.2-7,8v7.9c0,2.6-0.4,4.7,2.5,6.1v0.2h-10.9V170
		c2.9-1.4,2.5-3.5,2.5-6.1v-13.4c0-2.6,0.4-4.6-2.4-6v-0.2h4.2c1.5,0,3.1-0.1,4-0.7h0.2v4.3c1.4-2.5,4.4-4.3,7.7-4.3l2.3,0.2V149z"
		/>
	<path fill="#010101" d="M343.2,170.2h-10.9V170c2.9-1.4,2.5-3.5,2.5-6.1v-13.4c0-2.6,0.4-4.6-2.5-6v-0.2h4c1.5,0,3.1-0.1,4.2-0.9
		h0.2V164c0,2.6-0.4,4.7,2.5,6.1V170.2z M341.4,137.4c0,1.9-1.7,3.5-3.9,3.5c-2.4,0-4.2-1.6-4.2-3.7c0-2,2.1-3.3,4.2-3.3
		C339.8,133.9,341.4,135.6,341.4,137.4z"/>
	<path fill="#010101" d="M363.4,166.7l-3.4,4c-0.7,0.2-1.4,0.3-2.1,0.3c-10.1,0-9.2-9-9.2-11.2v-11.7h-4.4v-2
		c6.1-0.9,7.7-4.9,7.7-10.1h2.6v8.4h6.1c0.8,0,1.8,0,2.5-0.3h0.2v5.1h-0.2c-1-1.2-3-1.1-4.7-1.1h-3.9v11.2c0,2.1-0.8,7.9,6.2,7.9
		C361.7,167.2,362.6,166.9,363.4,166.7z"/>
	<path fill="#010101" d="M390,162.2c0,5.2-6.2,8.8-14.6,8.8c-2.9,0-5.7-0.4-8.5-1.3l-2.3-5.5c3.8,2.1,7.7,3.1,12.2,3.1
		c2.7,0,7.1-0.8,7.1-3.6c0-5.7-17.6-3.9-17.6-12.4c0-5.9,7.1-7.5,12.7-7.5c2.4,0,4.9,0.2,7.2,0.7v4.8c-2.4-1.1-5.1-1.8-8-1.8
		c-2.1,0-6,0.4-6,2.7C372.4,155,390,153.2,390,162.2z"/>
</g>
<g>
	<g>
		<path fill="#672B85" d="M205.1,155.3c-0.8,2.1-2,4.2-3.4,6.2l-0.4,0.5l0.2,0.2l2,1.7c0.5,0.5,1.5,1.3,2.9,2.6
			c2,1.9,3.4,2.9,4.1,2.9c0.6,0,1.6-0.7,2.9-2.2l0.6,0.5c-0.4,0.5-1.3,1.4-2.5,2.7c-0.6,0.7-1.4,1.5-2.3,2.5l-0.4,0.4l-0.5-0.5
			c-2.9-2.9-5.8-5.7-8.8-8.4l-0.4-0.4c-2.8,2.7-6,4.9-9.4,6.4c-3.4,1.6-6.7,2.3-9.9,2.3c-3.3,0-6-0.7-8-2.1c-2-1.4-3-3.3-3-5.7
			c0-3.8,2-6.6,5.9-8.6c1.6-0.8,3.3-1.3,5.1-1.7c1.8-0.3,4.5-0.6,8.2-0.7c1.3-0.1,2.2-0.5,2.6-1.2c-4,0-6.9-0.4-8.6-1.2
			c-1.8-0.8-2.6-2-2.6-3.8c0-2.4,1.5-4.5,4.6-6.4c3.3-2,6.7-3.1,10.2-3.1c0.7,0,1.4,0.1,2.3,0.2c-0.9,1.9-1.7,4.2-2.5,6.7l-0.8-0.3
			c0.3-1,0.5-1.8,0.5-2.4c0-0.7-0.2-1.2-0.6-1.4c-0.4-0.3-1.1-0.4-2-0.4c-2.8,0-5.1,0.5-6.7,1.5c-1.7,1-2.5,2.4-2.5,4.1
			c0,2.7,1.8,4.4,5.4,5.2c2.2,0.5,7.4,0.8,15.5,0.8c5.7,0,9.3-0.5,11-1.4c1.9-1.1,2.8-2.6,2.8-4.7c0-0.4-0.1-0.9-0.3-1.5
			c1.1,0.4,1.6,1.1,1.6,2.1c0,0.9-0.7,2-2.1,3.5c-1.4,1.5-2.9,2.7-4.4,3.5C209.5,154.8,207.4,155.3,205.1,155.3z M202.6,155.3
			l-1.3,0l-6-0.2l-6.9-0.2c-5.6,0-9.6,0.6-12.1,1.8c-3,1.5-4.6,3.7-4.6,6.6c0,2.3,1,4.1,2.9,5.4c2,1.4,4.6,2,7.8,2
			c3,0,5.9-0.6,8.6-1.9c2.7-1.3,5.1-3.1,7.1-5.5c-1.6-1.6-3.5-2.9-5.6-4c-2.1-1.1-3.9-1.6-5.4-1.6c-1.7,0-3.1,0.5-4.1,1.6
			c-1,1.1-1.5,2.5-1.5,4.3c0,0.5,0.1,1.1,0.2,1.9c-1-0.6-1.6-1.5-1.6-2.6c0-1.6,1-3.3,3-4.8c2-1.6,4.1-2.4,6.2-2.4
			c2.7,0,6,1.6,10,4.7l0.5,0.4C201.1,159.5,201.9,157.6,202.6,155.3z"/>
	</g>
</g>
</svg>
