<?xml version="1.0" encoding="UTF-8" standalone="no"?>
<svg width="12px" height="12px" viewBox="0 0 12 12" version="1.1" xmlns="http://www.w3.org/2000/svg" xmlns:xlink="http://www.w3.org/1999/xlink" xmlns:sketch="http://www.bohemiancoding.com/sketch/ns">
    <!-- Generator: Sketch 3.4.3 (16618) - http://www.bohemiancoding.com/sketch -->
    <title>settings</title>
    <desc>Created with Sketch.</desc>
    <defs></defs>
    <g id="Welcome" stroke="none" stroke-width="1" fill="none" fill-rule="evenodd" sketch:type="MSPage">
        <g id="Desktop-HD-Copy-3" sketch:type="MSArtboardGroup" transform="translate(-718.000000, -29.000000)" fill="#FFFFFF">
            <g id="settings" sketch:type="MSLayerGroup" transform="translate(718.000000, 29.000000)">
                <path d="M10.556,6.6 C10.556,6.42 10.6166667,6.24 10.6166667,6 C10.6166667,5.76 10.6166667,5.58 10.556,5.4 L11.83,4.38 C11.9513333,4.26 11.9513333,4.14 11.8906667,4.02 L10.6773333,1.92 C10.6166667,1.86 10.4953333,1.8 10.3133333,1.86 L8.79666667,2.46 C8.49333333,2.22 8.12933333,2.04 7.76533333,1.86 L7.52266667,0.3 C7.58333333,0.12 7.40133333,0 7.28,0 L4.85333333,0 C4.732,0 4.55,0.12 4.55,0.24 L4.30733333,1.86 C3.94333333,1.98 3.64,2.22 3.276,2.46 L1.82,1.86 C1.638,1.8 1.51666667,1.86 1.39533333,1.98 L0.182,4.08 C0.121333333,4.14 0.182,4.32 0.303333333,4.44 L1.57733333,5.4 C1.57733333,5.58 1.51666667,5.76 1.51666667,6 C1.51666667,6.24 1.51666667,6.42 1.57733333,6.6 L0.303333333,7.62 C0.182,7.74 0.182,7.86 0.242666667,7.98 L1.456,10.08 C1.51666667,10.14 1.638,10.2 1.82,10.14 L3.33666667,9.54 C3.64,9.78 4.004,9.96 4.368,10.14 L4.61066667,11.7 C4.61066667,11.82 4.732,11.94 4.914,11.94 L7.34066667,11.94 C7.462,11.94 7.644,11.82 7.644,11.7 L7.88666667,10.14 C8.25066667,9.96 8.61466667,9.78 8.918,9.54 L10.4346667,10.14 C10.556,10.2 10.738,10.14 10.7986667,10.02 L12.012,7.92 C12.0726667,7.8 12.0726667,7.62 11.9513333,7.56 L10.556,6.6 L10.556,6.6 Z M6.06666667,8.1 C4.914,8.1 3.94333333,7.14 3.94333333,6 C3.94333333,4.86 4.914,3.9 6.06666667,3.9 C7.21933333,3.9 8.19,4.86 8.19,6 C8.19,7.14 7.21933333,8.1 6.06666667,8.1 L6.06666667,8.1 Z" id="Shape" sketch:type="MSShapeGroup"></path>
            </g>
        </g>
    </g>
</svg>