<?xml version="1.0" encoding="UTF-8" standalone="no"?>
<svg width="99px" height="99px" viewBox="0 0 99 99" version="1.1" xmlns="http://www.w3.org/2000/svg" xmlns:xlink="http://www.w3.org/1999/xlink" xmlns:sketch="http://www.bohemiancoding.com/sketch/ns">
    <!-- Generator: Sketch 3.3.3 (12072) - http://www.bohemiancoding.com/sketch -->
    <title>Artboard</title>
    <desc>Created with Sketch.</desc>
    <defs></defs>
    <g id="Page-2" stroke="none" stroke-width="1" fill="none" fill-rule="evenodd" sketch:type="MSPage">
        <g id="Artboard" sketch:type="MSArtboardGroup">
            <rect id="Rectangle-1" stroke="#3B5791" fill="#3B5791" sketch:type="MSShapeGroup" x="0" y="0" width="99" height="99" rx="5"></rect>
            <path d="M41.3704296,81.3672288 L41.3704296,50.9051732 L33.3159091,50.9051732 L33.3159091,39.9369629 L41.3704296,39.9369629 L41.3704296,30.5691217 C41.3704296,23.2076605 46.1283317,16.4481132 57.0912154,16.4481132 C61.530109,16.4481132 64.8131148,16.8736551 64.8131148,16.8736551 L64.5538834,27.1156624 C64.5538834,27.1156624 61.2063657,27.0831105 57.5534521,27.0831105 C53.5998775,27.0831105 52.9665954,28.9048325 52.9665954,31.9291987 C52.9665954,34.3196909 52.9665954,26.8339407 52.9665954,39.9375547 L64.868157,39.9375547 L64.3502861,50.905765 L52.9665954,50.905765 L52.9665954,81.3678207 L41.3704296,81.3678207 L41.3704296,81.3672288 Z" id="Shape-3" fill="#FFFFFF" sketch:type="MSShapeGroup"></path>
        </g>
    </g>
</svg>