<?xml version="1.0" encoding="UTF-8" standalone="no"?>
<svg width="99px" height="99px" viewBox="0 0 99 99" version="1.1" xmlns="http://www.w3.org/2000/svg" xmlns:xlink="http://www.w3.org/1999/xlink" xmlns:sketch="http://www.bohemiancoding.com/sketch/ns">
    <!-- Generator: Sketch 3.3.3 (12072) - http://www.bohemiancoding.com/sketch -->
    <title>Artboard</title>
    <desc>Created with Sketch.</desc>
    <defs></defs>
    <g id="Page-3" stroke="none" stroke-width="1" fill="none" fill-rule="evenodd" sketch:type="MSPage">
        <g id="Artboard" sketch:type="MSArtboardGroup">
            <rect id="Rectangle-1" stroke="#32A7E0" fill="#32A7E0" sketch:type="MSShapeGroup" x="0" y="0" width="99" height="99" rx="5"></rect>
            <path d="M84.407045,27.578388 C81.8753999,28.7014227 79.154174,29.4600905 76.2987618,29.801405 C79.2133535,28.0542327 81.4521975,25.2875899 82.5060748,21.9907398 C79.7779674,23.6088869 76.756715,24.7835317 73.5407207,25.416615 C70.9657232,22.6726806 67.2965926,20.9585388 63.2359138,20.9585388 C55.4393553,20.9585388 49.1178122,27.2793938 49.1178122,35.0759522 C49.1178122,36.1824717 49.2427085,37.2600896 49.4832114,38.2933228 C37.7498382,37.7046242 27.3473162,32.0839455 20.3844322,23.542482 C19.1691875,25.6275281 18.4727959,28.0525123 18.4727959,30.6398963 C18.4727959,35.5380342 20.9652173,39.8591718 24.7533951,42.3908168 C22.4388563,42.3175305 20.2622884,41.6823828 18.3589097,40.6250649 C18.3575334,40.6839004 18.3575334,40.7430799 18.3575334,40.8026035 C18.3575334,47.6426556 23.2240172,53.3486629 29.682499,54.6457956 C28.4978763,54.9685304 27.2506334,55.140908 25.9627906,55.140908 C25.0527334,55.140908 24.1684812,55.0521387 23.3062492,54.8876747 C25.1033112,60.496311 30.3166145,64.578322 36.4946818,64.6918641 C31.6629487,68.4786656 25.5757152,70.7354011 18.961027,70.7354011 C17.821477,70.7354011 16.6977542,70.6686521 15.5932991,70.5379066 C21.8412119,74.5438788 29.2623932,76.8814701 37.2347699,76.8814701 C63.2025393,76.8814701 77.4028729,55.3690244 77.4028729,36.712679 C77.4028729,36.1005838 77.3891102,35.4919292 77.3619289,34.8860272 C80.1210023,32.8959436 82.5143324,30.4093714 84.407045,27.578388 L84.407045,27.578388 Z" id="Shape-5" fill="#FFFFFF" sketch:type="MSShapeGroup"></path>
        </g>
    </g>
</svg>